<svg class="lds-flask" width="150px"  height="150px"  xmlns="http://www.w3.org/2000/svg" xmlns:xlink="http://www.w3.org/1999/xlink" viewBox="0 0 100 100" preserveAspectRatio="xMidYMid" style="background: none;"><defs>
<clipPath id="lds-flask-cpid-16e9e7448f2e2" clipPathUnits="userSpaceOnUse">
<rect x="0" y="50" width="100" height="50"></rect>
</clipPath>
<pattern id="lds-flask-patid-af68336fc0ee5" patternUnits="userSpaceOnUse" x="0" y="0" width="100" height="100">
<rect x="0" y="0" width="100" height="100" fill="#ffcbdf"></rect><circle cx="18" cy="0" r="2" fill="#ff65a7" transform="translate(0 77.1451)">
<animateTransform attributeName="transform" type="translate" values="0 121;0 -21" keyTimes="0;1" dur="3s" begin="-0.06s" repeatCount="indefinite"></animateTransform>
</circle><circle cx="9" cy="0" r="2" fill="#ff65a7" transform="translate(0 130.551)">
<animateTransform attributeName="transform" type="translate" values="0 132;0 -32" keyTimes="0;1" dur="3s" begin="-2.16s" repeatCount="indefinite"></animateTransform>
</circle><circle cx="44" cy="0" r="2" fill="#ff65a7" transform="translate(0 -7.4642)">
<animateTransform attributeName="transform" type="translate" values="0 117;0 -17" keyTimes="0;1" dur="3s" begin="-1.92s" repeatCount="indefinite"></animateTransform>
</circle><circle cx="46" cy="0" r="2" fill="#ff65a7" transform="translate(0 17.0404)">
<animateTransform attributeName="transform" type="translate" values="0 119;0 -19" keyTimes="0;1" dur="3s" begin="-1.35s" repeatCount="indefinite"></animateTransform>
</circle><circle cx="81" cy="0" r="2" fill="#ff65a7" transform="translate(0 39.0563)">
<animateTransform attributeName="transform" type="translate" values="0 143;0 -43" keyTimes="0;1" dur="3s" begin="-0.81s" repeatCount="indefinite"></animateTransform>
</circle><circle cx="30" cy="0" r="3" fill="#ff65a7" transform="translate(0 58.186)">
<animateTransform attributeName="transform" type="translate" values="0 130;0 -30" keyTimes="0;1" dur="3s" begin="-0.48s" repeatCount="indefinite"></animateTransform>
</circle><circle cx="70" cy="0" r="2" fill="#ff65a7" transform="translate(0 65.1744)">
<animateTransform attributeName="transform" type="translate" values="0 125;0 -25" keyTimes="0;1" dur="3s" begin="-0.33s" repeatCount="indefinite"></animateTransform>
</circle><circle cx="22" cy="0" r="2" fill="#ff65a7" transform="translate(0 46.4963)">
<animateTransform attributeName="transform" type="translate" values="0 143;0 -43" keyTimes="0;1" dur="3s" begin="-0.69s" repeatCount="indefinite"></animateTransform>
</circle><circle cx="49" cy="0" r="2" fill="#ff65a7" transform="translate(0 94.9488)">
<animateTransform attributeName="transform" type="translate" values="0 114;0 -14" keyTimes="0;1" dur="3s" begin="-2.58s" repeatCount="indefinite"></animateTransform>
</circle><circle cx="15" cy="0" r="3" fill="#ff65a7" transform="translate(0 66.7739)">
<animateTransform attributeName="transform" type="translate" values="0 142;0 -42" keyTimes="0;1" dur="3s" begin="-0.36s" repeatCount="indefinite"></animateTransform>
</circle><circle cx="74" cy="0" r="3" fill="#ff65a7" transform="translate(0 99.4846)">
<animateTransform attributeName="transform" type="translate" values="0 138;0 -38" keyTimes="0;1" dur="3s" begin="-2.79s" repeatCount="indefinite"></animateTransform>
</circle><circle cx="3" cy="0" r="2" fill="#ff65a7" transform="translate(0 118.577)">
<animateTransform attributeName="transform" type="translate" values="0 126;0 -26" keyTimes="0;1" dur="3s" begin="-2.28s" repeatCount="indefinite"></animateTransform>
</circle><circle cx="60" cy="0" r="2" fill="#ff65a7" transform="translate(0 57.4916)">
<animateTransform attributeName="transform" type="translate" values="0 141;0 -41" keyTimes="0;1" dur="3s" begin="-0.51s" repeatCount="indefinite"></animateTransform>
</circle><circle cx="49" cy="0" r="2" fill="#ff65a7" transform="translate(0 71.9609)">
<animateTransform attributeName="transform" type="translate" values="0 102;0 -2" keyTimes="0;1" dur="3s" begin="-3s" repeatCount="indefinite"></animateTransform>
</circle><circle cx="45" cy="0" r="2" fill="#ff65a7" transform="translate(0 102.539)">
<animateTransform attributeName="transform" type="translate" values="0 127;0 -27" keyTimes="0;1" dur="3s" begin="-2.61s" repeatCount="indefinite"></animateTransform>
</circle><circle cx="62" cy="0" r="2" fill="#ff65a7" transform="translate(0 84.6604)">
<animateTransform attributeName="transform" type="translate" values="0 119;0 -19" keyTimes="0;1" dur="3s" begin="-2.88s" repeatCount="indefinite"></animateTransform>
</circle><circle cx="19" cy="0" r="3" fill="#ff65a7" transform="translate(0 114.967)">
<animateTransform attributeName="transform" type="translate" values="0 122;0 -22" keyTimes="0;1" dur="3s" begin="-2.28s" repeatCount="indefinite"></animateTransform>
</circle><circle cx="10" cy="0" r="2" fill="#ff65a7" transform="translate(0 26.1744)">
<animateTransform attributeName="transform" type="translate" values="0 125;0 -25" keyTimes="0;1" dur="3s" begin="-1.11s" repeatCount="indefinite"></animateTransform>
</circle><circle cx="35" cy="0" r="2" fill="#ff65a7" transform="translate(0 55.2688)">
<animateTransform attributeName="transform" type="translate" values="0 114;0 -14" keyTimes="0;1" dur="3s" begin="-0.51s" repeatCount="indefinite"></animateTransform>
</circle><circle cx="42" cy="0" r="3" fill="#ff65a7" transform="translate(0 50.1651)">
<animateTransform attributeName="transform" type="translate" values="0 121;0 -21" keyTimes="0;1" dur="3s" begin="-0.63s" repeatCount="indefinite"></animateTransform>
</circle><circle cx="57" cy="0" r="2" fill="#ff65a7" transform="translate(0 101.349)">
<animateTransform attributeName="transform" type="translate" values="0 114;0 -14" keyTimes="0;1" dur="3s" begin="-2.43s" repeatCount="indefinite"></animateTransform>
</circle><circle cx="3" cy="0" r="2" fill="#ff65a7" transform="translate(0 78.7181)">
<animateTransform attributeName="transform" type="translate" values="0 118;0 -18" keyTimes="0;1" dur="3s" begin="0s" repeatCount="indefinite"></animateTransform>
</circle><circle cx="72" cy="0" r="3" fill="#ff65a7" transform="translate(0 -38.6451)">
<animateTransform attributeName="transform" type="translate" values="0 151;0 -51" keyTimes="0;1" dur="3s" begin="-1.95s" repeatCount="indefinite"></animateTransform>
</circle><circle cx="15" cy="0" r="2" fill="#ff65a7" transform="translate(0 78.5149)">
<animateTransform attributeName="transform" type="translate" values="0 151;0 -51" keyTimes="0;1" dur="3s" begin="-0.21s" repeatCount="indefinite"></animateTransform>
</circle><circle cx="45" cy="0" r="2" fill="#ff65a7" transform="translate(0 118.845)">
<animateTransform attributeName="transform" type="translate" values="0 138;0 -38" keyTimes="0;1" dur="3s" begin="-2.46s" repeatCount="indefinite"></animateTransform>
</circle><circle cx="39" cy="0" r="2" fill="#ff65a7" transform="translate(0 7.22789)">
<animateTransform attributeName="transform" type="translate" values="0 105;0 -5" keyTimes="0;1" dur="3s" begin="-1.8s" repeatCount="indefinite"></animateTransform>
</circle><circle cx="73" cy="0" r="3" fill="#ff65a7" transform="translate(0 103.52)">
<animateTransform attributeName="transform" type="translate" values="0 136;0 -36" keyTimes="0;1" dur="3s" begin="-2.7s" repeatCount="indefinite"></animateTransform>
</circle><circle cx="19" cy="0" r="2" fill="#ff65a7" transform="translate(0 124.233)">
<animateTransform attributeName="transform" type="translate" values="0 150;0 -50" keyTimes="0;1" dur="3s" begin="-2.52s" repeatCount="indefinite"></animateTransform>
</circle><circle cx="12" cy="0" r="3" fill="#ff65a7" transform="translate(0 -7.23723)">
<animateTransform attributeName="transform" type="translate" values="0 120;0 -20" keyTimes="0;1" dur="3s" begin="-1.86s" repeatCount="indefinite"></animateTransform>
</circle><circle cx="98" cy="0" r="2" fill="#ff65a7" transform="translate(0 -7.45118)">
<animateTransform attributeName="transform" type="translate" values="0 114;0 -14" keyTimes="0;1" dur="3s" begin="-1.98s" repeatCount="indefinite"></animateTransform>
</circle><circle cx="69" cy="0" r="2" fill="#ff65a7" transform="translate(0 80.1246)">
<animateTransform attributeName="transform" type="translate" values="0 138;0 -38" keyTimes="0;1" dur="3s" begin="-0.12s" repeatCount="indefinite"></animateTransform>
</circle><circle cx="9" cy="0" r="2" fill="#ff65a7" transform="translate(0 103.98)">
<animateTransform attributeName="transform" type="translate" values="0 119;0 -19" keyTimes="0;1" dur="3s" begin="-2.46s" repeatCount="indefinite"></animateTransform>
</circle><circle cx="11" cy="0" r="3" fill="#ff65a7" transform="translate(0 96.6949)">
<animateTransform attributeName="transform" type="translate" values="0 151;0 -51" keyTimes="0;1" dur="3s" begin="-2.94s" repeatCount="indefinite"></animateTransform>
</circle><circle cx="5" cy="0" r="3" fill="#ff65a7" transform="translate(0 108.424)">
<animateTransform attributeName="transform" type="translate" values="0 112;0 -12" keyTimes="0;1" dur="3s" begin="-2.22s" repeatCount="indefinite"></animateTransform>
</circle><circle cx="38" cy="0" r="2" fill="#ff65a7" transform="translate(0 91.6958)">
<animateTransform attributeName="transform" type="translate" values="0 117;0 -17" keyTimes="0;1" dur="3s" begin="-2.7s" repeatCount="indefinite"></animateTransform>
</circle><circle cx="18" cy="0" r="3" fill="#ff65a7" transform="translate(0 -11.0023)">
<animateTransform attributeName="transform" type="translate" values="0 135;0 -35" keyTimes="0;1" dur="3s" begin="-1.71s" repeatCount="indefinite"></animateTransform>
</circle><circle cx="15" cy="0" r="3" fill="#ff65a7" transform="translate(0 93.0358)">
<animateTransform attributeName="transform" type="translate" values="0 117;0 -17" keyTimes="0;1" dur="3s" begin="-2.67s" repeatCount="indefinite"></animateTransform>
</circle><circle cx="98" cy="0" r="3" fill="#ff65a7" transform="translate(0 50.1837)">
<animateTransform attributeName="transform" type="translate" values="0 129;0 -29" keyTimes="0;1" dur="3s" begin="-0.63s" repeatCount="indefinite"></animateTransform>
</circle><circle cx="74" cy="0" r="3" fill="#ff65a7" transform="translate(0 0.820908)">
<animateTransform attributeName="transform" type="translate" values="0 145;0 -45" keyTimes="0;1" dur="3s" begin="-1.41s" repeatCount="indefinite"></animateTransform>
</circle><circle cx="57" cy="0" r="3" fill="#ff65a7" transform="translate(0 23.4595)">
<animateTransform attributeName="transform" type="translate" values="0 153;0 -53" keyTimes="0;1" dur="3s" begin="-1.02s" repeatCount="indefinite"></animateTransform>
</circle><circle cx="23" cy="0" r="2" fill="#ff65a7" transform="translate(0 -17.0898)">
<animateTransform attributeName="transform" type="translate" values="0 149;0 -49" keyTimes="0;1" dur="3s" begin="-1.65s" repeatCount="indefinite"></animateTransform>
</circle><circle cx="97" cy="0" r="2" fill="#ff65a7" transform="translate(0 -0.237221)">
<animateTransform attributeName="transform" type="translate" values="0 120;0 -20" keyTimes="0;1" dur="3s" begin="-1.71s" repeatCount="indefinite"></animateTransform>
</circle><circle cx="63" cy="0" r="3" fill="#ff65a7" transform="translate(0 44.6279)">
<animateTransform attributeName="transform" type="translate" values="0 105;0 -5" keyTimes="0;1" dur="3s" begin="-0.78s" repeatCount="indefinite"></animateTransform>
</circle><circle cx="28" cy="0" r="3" fill="#ff65a7" transform="translate(0 97.5316)">
<animateTransform attributeName="transform" type="translate" values="0 141;0 -41" keyTimes="0;1" dur="3s" begin="-2.85s" repeatCount="indefinite"></animateTransform>
</circle><circle cx="59" cy="0" r="2" fill="#ff65a7" transform="translate(0 72.5935)">
<animateTransform attributeName="transform" type="translate" values="0 116;0 -16" keyTimes="0;1" dur="3s" begin="-0.12s" repeatCount="indefinite"></animateTransform>
</circle><circle cx="97" cy="0" r="2" fill="#ff65a7" transform="translate(0 103.452)">
<animateTransform attributeName="transform" type="translate" values="0 124;0 -24" keyTimes="0;1" dur="3s" begin="-2.55s" repeatCount="indefinite"></animateTransform>
</circle><circle cx="79" cy="0" r="3" fill="#ff65a7" transform="translate(0 27.7628)">
<animateTransform attributeName="transform" type="translate" values="0 120;0 -20" keyTimes="0;1" dur="3s" begin="-1.11s" repeatCount="indefinite"></animateTransform>
</circle><circle cx="47" cy="0" r="2" fill="#ff65a7" transform="translate(0 22.0818)">
<animateTransform attributeName="transform" type="translate" values="0 111;0 -11" keyTimes="0;1" dur="3s" begin="-1.32s" repeatCount="indefinite"></animateTransform>
</circle><circle cx="63" cy="0" r="3" fill="#ff65a7" transform="translate(0 27.0381)">
<animateTransform attributeName="transform" type="translate" values="0 118;0 -18" keyTimes="0;1" dur="3s" begin="-1.14s" repeatCount="indefinite"></animateTransform>
</circle><circle cx="51" cy="0" r="3" fill="#ff65a7" transform="translate(0 40.4279)">
<animateTransform attributeName="transform" type="translate" values="0 148;0 -48" keyTimes="0;1" dur="3s" begin="-0.78s" repeatCount="indefinite"></animateTransform>
</circle>      </pattern></defs>

      <path fill="url(#lds-flask-patid-af68336fc0ee5)" clip-path="url(#lds-flask-cpid-16e9e7448f2e2)" d="M59,37.3V18.9c3-0.8,5.1-3.6,5.1-6.8C64.1,8.2,61,5,57.1,5H42.9c-3.9,0-7.1,3.2-7.1,7.1c0,3.2,2.2,6,5.1,6.8v18.4c-11.9,3.8-20.6,15-20.6,28.2C20.4,81.8,33.7,95,50,95s29.6-13.2,29.6-29.6C79.6,52.2,70.9,41.1,59,37.3z"></path>

      <path fill="none" stroke="#ff65a7" stroke-width="5" d="M59,37.3V18.9c3-0.8,5.1-3.6,5.1-6.8C64.1,8.2,61,5,57.1,5H42.9c-3.9,0-7.1,3.2-7.1,7.1c0,3.2,2.2,6,5.1,6.8v18.4c-11.9,3.8-20.6,15-20.6,28.2C20.4,81.8,33.7,95,50,95s29.6-13.2,29.6-29.6C79.6,52.2,70.9,41.1,59,37.3z"></path>
</svg>