<svg xmlns="http://www.w3.org/2000/svg" xmlns:xlink="http://www.w3.org/1999/xlink" preserveAspectRatio="xMidYMid" width="125" height="16" viewBox="0 0 125 16">
  <defs>
    <style>
      .cls-1 {
        fill: #ea9735;
        filter: url(#drop-shadow-1);
        fill-rule: evenodd;
      }
    </style>

    <filter id="drop-shadow-1" filterUnits="userSpaceOnUse">
      <feOffset dy="4" in="SourceAlpha"/>
      <feGaussianBlur result="dropBlur"/>
      <feFlood flood-color="#81705b" flood-opacity="0.08"/>
      <feComposite operator="in" in2="dropBlur" result="dropShadowComp"/>
      <feComposite in="SourceGraphic" result="shadowed"/>
    </filter>
  </defs>
  <path d="M114.179,13.999 L114.179,2.001 L124.999,8.000 L114.179,13.999 ZM97.404,2.001 L108.224,8.000 L97.404,13.999 L97.404,2.001 ZM81.170,2.001 L91.990,8.000 L81.170,13.999 L81.170,2.001 ZM64.936,2.001 L75.757,8.000 L64.936,13.999 L64.936,2.001 ZM48.702,2.001 L59.523,8.000 L48.702,13.999 L48.702,2.001 ZM32.469,2.001 L43.289,8.000 L32.469,13.999 L32.469,2.001 ZM16.235,2.001 L27.055,8.000 L16.235,13.999 L16.235,2.001 ZM0.001,2.001 L10.822,8.000 L0.001,13.999 L0.001,2.001 Z" class="cls-1"/>
</svg>
